<svg width="11" height="14" viewBox="0 0 11 14" fill="none" xmlns="http://www.w3.org/2000/svg">
<path d="M5.49964 5.3449C7.00316 5.3449 8.222 4.14841 8.222 2.67245C8.222 1.1965 7.00316 0 5.49964 0C3.99612 0 2.77728 1.1965 2.77728 2.67245C2.77728 4.14841 3.99612 5.3449 5.49964 5.3449Z" fill="white"/>
<path d="M10.0479 12.9235H10.0444C8.99776 13.5635 7.36274 13.9831 5.52205 13.9977H5.47737C3.63668 13.9831 2.00166 13.5635 0.954998 12.9235H0.95156C-0.547112 11.9832 0.154102 9.94458 0.22915 9.74775V9.73931V9.73256L0.672564 8.5285C1.03406 7.5477 1.99364 6.81829 3.17092 6.62989C3.91546 6.51076 4.66859 6.45095 5.42294 6.45105H5.57075C6.3251 6.45095 7.07823 6.51076 7.82277 6.62989C9.00005 6.81829 9.95963 7.5477 10.3211 8.5285L10.7703 9.732L10.7731 9.73875C10.7731 9.73875 10.7731 9.74381 10.776 9.74719C10.8453 9.94458 11.5465 11.9832 10.0479 12.9235Z" fill="white"/>
</svg>
