<svg width="126" height="26" viewBox="0 0 126 26" fill="none" xmlns="http://www.w3.org/2000/svg">
<path d="M30.8804 0L30.5473 1.18168L29.1783 6.01131L28.9864 6.66976H5.47888L7.18097 0.658451L7.3701 0H30.8804Z" fill="white"/>
<path d="M28.1396 9.66219L27.8037 10.8439L26.2512 16.3378H2.74084L4.44576 10.3236L4.62923 9.66219H28.1396Z" fill="white"/>
<path d="M25.4044 19.3302L25.0685 20.506L23.6994 25.3415L23.5103 26H0L1.89404 19.3302H25.4044Z" fill="white"/>
<path d="M54.3569 16.914C53.2805 19.7222 51.744 21.8778 49.7474 23.3809C47.6976 24.8927 45.2357 25.679 42.7245 25.6237C41.3028 25.6493 39.891 25.3733 38.5751 24.8124C37.3137 24.257 36.2083 23.3771 35.3626 22.2552C34.5169 21.1334 33.9585 19.8063 33.7398 18.3984C33.4866 16.6667 33.5547 14.9005 33.9402 13.1955C34.2975 11.3999 34.9548 9.6836 35.8822 8.12481C36.8212 6.56975 38.0121 5.19621 39.4022 4.06534C40.6253 3.03727 41.9985 2.21956 43.4697 1.64318C44.8693 1.09903 46.3509 0.819308 47.8449 0.817179C48.4396 0.814746 49.0333 0.871839 49.6175 0.987671C50.156 1.08818 50.6823 1.24984 51.187 1.46975L51.8277 1.79016C52.8637 2.28988 53.5609 2.54267 53.9193 2.54267C54.0905 2.5436 54.2599 2.5069 54.4166 2.43498C54.5732 2.36305 54.7135 2.25751 54.8283 2.12526C55.1073 1.80119 55.2932 1.40187 55.3646 0.972973H57.0187L55.3872 10.7733H53.7867C53.6455 7.97098 53.1666 5.94761 52.3499 4.70322C51.5332 3.45882 50.2724 2.84152 48.5675 2.85132C46.4975 2.85132 44.7634 3.7273 43.3652 5.47925C41.9671 7.2312 40.9123 9.81993 40.201 13.2454C39.4878 16.7493 39.4417 19.3528 40.0627 21.0557C40.6837 22.7587 41.9887 23.6102 43.9778 23.6102C45.6916 23.5923 47.3491 22.9706 48.6804 21.8465C50.1426 20.6707 51.3657 19.0235 52.3499 16.9051L54.3569 16.914Z" fill="white"/>
<path d="M62.3621 16.7229L60.7447 19.4449C60.5658 19.739 60.4083 20.0465 60.2733 20.3649C60.1506 20.6481 60.0561 20.9436 59.991 21.2468C59.8555 21.9092 59.9421 22.3991 60.2507 22.7166C60.5593 23.034 61.0984 23.2026 61.8681 23.2222H62.7149L62.3592 24.9682H53.7302L54.0831 23.2222C54.9235 23.1785 55.7289 22.8584 56.3836 22.308C57.078 21.7436 57.8646 20.7637 58.7434 19.3685L70.1019 1.31984H74.4545L77.6668 20.315C77.8418 21.3164 78.1288 22.0336 78.5277 22.4667C78.9257 22.9017 79.5241 23.1428 80.3229 23.1957L79.9673 24.9418H68.1571L68.5099 23.2222C69.799 23.1771 70.6843 23.0566 71.1661 22.8606C71.386 22.7842 71.5826 22.6484 71.7358 22.4672C71.889 22.286 71.9934 22.0657 72.0383 21.8288C72.0666 21.6192 72.0666 21.4065 72.0383 21.1968C72.0157 20.9029 71.9564 20.4737 71.8633 19.8741L71.3693 16.72L62.3621 16.7229ZM63.5815 14.8151H71.0419L69.4555 5.33521L63.5815 14.8151Z" fill="white"/>
<path d="M106.458 1.33159L104.991 9.26828H103.224C103.348 7.14203 102.898 5.56743 101.874 4.54448C100.851 3.52153 99.2191 3.00908 96.9798 3.00712C95.7095 3.00712 94.8317 3.17761 94.3462 3.51859C93.8607 3.85958 93.4561 4.8257 93.1324 6.41695L92.0654 11.6405H93.2961C94.6284 11.6405 95.6992 11.2907 96.5084 10.5911C97.3175 9.89146 97.9141 8.8107 98.298 7.34878H100.096L97.9395 17.931L96.1442 17.9134C96.37 16.3554 96.2233 15.2032 95.7039 14.4565C95.1845 13.7099 94.269 13.3356 92.9574 13.3336H91.738L90.3972 19.9005C90.1093 21.3115 90.0716 22.2002 90.2843 22.5666C90.496 22.937 90.99 23.1545 91.769 23.1986L92.661 23.2809L92.3025 24.9535H80.6899L81.0371 23.2574L82.0081 23.1751C82.7872 23.1222 83.3517 22.9174 83.7017 22.5608C84.0518 22.2041 84.3782 21.3095 84.6812 19.877L87.4249 6.42283C87.7203 4.98247 87.7636 4.08298 87.5547 3.72436C87.3459 3.36868 86.8547 3.16291 86.0869 3.10706L85.1639 3.04533L85.5111 1.33159H106.458Z" fill="white"/>
<path d="M108.039 16.7229L106.416 19.4449C106.237 19.739 106.08 20.0465 105.945 20.3649C105.822 20.6481 105.727 20.9436 105.662 21.2468C105.527 21.9092 105.613 22.3991 105.922 22.7166C106.231 23.034 106.772 23.2026 107.545 23.2222H108.392L108.036 24.9682H99.4073L99.7601 23.2222C100.601 23.1785 101.406 22.8584 102.061 22.308C102.755 21.7436 103.542 20.7637 104.42 19.3685L115.779 1.31984H120.132L123.352 20.3267C123.527 21.3281 123.81 22.0454 124.199 22.4785C124.597 22.9135 125.196 23.1545 125.994 23.2075L125.639 24.9535H113.834L114.187 23.2222C115.478 23.1771 116.363 23.0566 116.843 22.8606C117.061 22.7831 117.256 22.6473 117.407 22.4667C117.559 22.2861 117.662 22.0671 117.707 21.8318C117.735 21.6221 117.735 21.4094 117.707 21.1998C117.684 20.9058 117.625 20.4767 117.532 19.877L117.038 16.7229H108.039ZM109.259 14.8151H116.719L115.133 5.33521L109.259 14.8151Z" fill="white"/>
</svg>
