<svg width="27" height="19" viewBox="0 0 27 19" fill="none" xmlns="http://www.w3.org/2000/svg">
<path d="M25.7651 2.9255C25.4707 1.79611 24.6032 0.906635 23.5018 0.60478C21.5054 0.0562744 13.5 0.0562744 13.5 0.0562744C13.5 0.0562744 5.49469 0.0562744 3.49823 0.60478C2.39681 0.906683 1.52934 1.79611 1.23492 2.9255C0.699982 4.97258 0.699982 9.24363 0.699982 9.24363C0.699982 9.24363 0.699982 13.5147 1.23492 15.5618C1.52934 16.6911 2.39681 17.5436 3.49823 17.8454C5.49469 18.3939 13.5 18.3939 13.5 18.3939C13.5 18.3939 21.5053 18.3939 23.5018 17.8454C24.6032 17.5436 25.4707 16.6911 25.7651 15.5618C26.3 13.5147 26.3 9.24363 26.3 9.24363C26.3 9.24363 26.3 4.97258 25.7651 2.9255ZM10.8818 13.1214V5.36583L17.5727 9.24372L10.8818 13.1214Z" fill="white"/>
</svg>
